<svg xmlns="http://www.w3.org/2000/svg" viewBox="0 0 53.51 22.55"><defs><style>.cls-1{fill:#fff;}</style></defs><title>Asset 3-digital</title><g id="Layer_2" data-name="Layer 2"><g id="Layer_1-2" data-name="Layer 1"><g id="Layer_2-2" data-name="Layer 2"><g id="Layer_1-2-2" data-name="Layer 1-2"><path class="cls-1" d="M3.62,15.29H0V0H3.62Zm9.27-3.72a3.94,3.94,0,1,1,0-7.87A3.84,3.84,0,0,1,16.3,5.79h3.87a7.65,7.65,0,1,0,0,3.69H16.3a3.86,3.86,0,0,1-3.41,2.09M53.5,7.39h0a7.4,7.4,0,0,0-14.79,0h0v7.9h3.62V7.46h0a3.78,3.78,0,0,1,7.55,0h0v7.83h3.63Zm-20.21.25a3.87,3.87,0,1,0-3.85,3.93,3.86,3.86,0,0,0,3.85-3.93m3.65,0A7.51,7.51,0,1,1,29.43,0a7.59,7.59,0,0,1,7.51,7.64h0"/></g></g><path class="cls-1" d="M14.11,19.37a1.77,1.77,0,0,1,.86.21,1.55,1.55,0,0,1,.8,1.35h0a1.45,1.45,0,0,1-.22.79,1.42,1.42,0,0,1-.58.56,1.77,1.77,0,0,1-.86.21h-1V19.37Zm-.81,2.91h.81a1.58,1.58,0,0,0,.74-.17,1.22,1.22,0,0,0,.5-.48,1.37,1.37,0,0,0,.18-.69h0a1.3,1.3,0,0,0-.18-.68,1.18,1.18,0,0,0-.5-.49,1.47,1.47,0,0,0-.74-.18H13.3Z"/><path class="cls-1" d="M18.56,19.37V22.5h-.23V19.37Z"/><path class="cls-1" d="M21.68,22.34a1.49,1.49,0,0,1-.55-.59,1.67,1.67,0,0,1-.19-.81h0a1.69,1.69,0,0,1,.2-.8,1.56,1.56,0,0,1,.54-.6,1.58,1.58,0,0,1,.81-.22,1.64,1.64,0,0,1,1.14.41l-.15.18a1.63,1.63,0,0,0-.44-.28,1.42,1.42,0,0,0-.57-.1,1.16,1.16,0,0,0-.66.19,1.33,1.33,0,0,0-.46.51,1.54,1.54,0,0,0-.17.7h0a1.53,1.53,0,0,0,.17.72,1.17,1.17,0,0,0,.46.5,1.37,1.37,0,0,0,.71.19,1.72,1.72,0,0,0,.55-.1,2,2,0,0,0,.45-.26v-.9H22.47v-.21h1.27v1.2a2,2,0,0,1-.55.34,1.72,1.72,0,0,1-.68.13A1.6,1.6,0,0,1,21.68,22.34Z"/><path class="cls-1" d="M26.58,19.37V22.5h-.23V19.37Z"/><path class="cls-1" d="M28.66,19.59v-.22h2.4v.22H30V22.5h-.24V19.59Z"/><path class="cls-1" d="M34.52,19.35,36,22.5h-.25l-.4-.88H33.48l-.4.88h-.24l1.46-3.15Zm-.12.26-.82,1.8h1.64Z"/><path class="cls-1" d="M38.6,19.37v2.91h1.84v.22H38.37V19.37Z"/></g></g></svg>