<svg xmlns="http://www.w3.org/2000/svg" viewBox="0 0 64.91 18.55"><defs><style>.cls-1{fill:#fff;}</style></defs><title>Asset 11</title><g id="Layer_2" data-name="Layer 2"><g id="Layer_1-2" data-name="Layer 1"><g id="Layer_2-2" data-name="Layer 2"><g id="Layer_1-2-2" data-name="Layer 1-2"><path class="cls-1" d="M4.4,18.55H0V0H4.4ZM15.63,14a4.77,4.77,0,0,1,0-9.54A4.67,4.67,0,0,1,19.78,7h4.69a9.27,9.27,0,1,0,0,4.48H19.78A4.67,4.67,0,0,1,15.63,14M64.9,9h0A9,9,0,0,0,47,9h0v9.58h4.39V9.06h0a4.58,4.58,0,0,1,9.16,0h0v9.49h4.4Zm-24.51.3A4.69,4.69,0,1,0,35.71,14a4.69,4.69,0,0,0,4.68-4.76m4.42.15A9.26,9.26,0,1,1,35.56,0a9.26,9.26,0,0,1,9.25,9.42h0"/></g></g></g></g></svg>