<svg xmlns="http://www.w3.org/2000/svg" viewBox="0 0 56.59 23.54"><defs><style>.cls-1{fill:#fff;}</style></defs><title>Asset 2ad</title><g id="Layer_2" data-name="Layer 2"><g id="Layer_1-2" data-name="Layer 1"><g id="Layer_2-2" data-name="Layer 2"><g id="Layer_1-2-2" data-name="Layer 1-2"><path class="cls-1" d="M3.83,16.17H0V0H3.83Zm9.8-3.94a4.16,4.16,0,0,1,0-8.32,4.1,4.1,0,0,1,3.61,2.21h4.1a8.09,8.09,0,1,0,0,3.9h-4.1a4.06,4.06,0,0,1-3.61,2.21M56.58,7.82h0a7.82,7.82,0,0,0-15.64,0h0v8.35h3.83V7.9h0a4,4,0,1,1,8,0h0v8.27h3.84Zm-21.37.26a4.09,4.09,0,1,0-4.08,4.15,4.09,4.09,0,0,0,4.08-4.15m3.86,0A7.94,7.94,0,1,1,31.13,0a7.94,7.94,0,0,1,7.94,8.08h0"/></g></g><path class="cls-1" d="M4.62,20.15l1.54,3.33H5.89l-.42-.92H3.52l-.42.92H2.84l1.54-3.33Zm-.12.27-.88,1.91H5.36Z"/><path class="cls-1" d="M9.8,20.18a1.9,1.9,0,0,1,.9.21,1.56,1.56,0,0,1,.63.59,1.6,1.6,0,0,1,.22.84h0a1.6,1.6,0,0,1-.22.84,1.56,1.56,0,0,1-.63.59,1.79,1.79,0,0,1-.9.22H8.7v-3.3Zm-.86,3.07H9.8a1.7,1.7,0,0,0,.79-.18,1.41,1.41,0,0,0,.52-.51,1.49,1.49,0,0,0,.19-.72h0a1.49,1.49,0,0,0-.19-.72,1.37,1.37,0,0,0-.52-.52,1.71,1.71,0,0,0-.79-.19H8.94Z"/><path class="cls-1" d="M14,20.18l1.3,3,1.3-3h.25L15.4,23.5h-.22l-1.45-3.32Z"/><path class="cls-1" d="M21.74,20.18v.22h-2.1v1.3h1.89v.23H19.64v1.32h2.13v.23H19.39v-3.3Z"/><path class="cls-1" d="M25.78,20.18a1.8,1.8,0,0,1,.54.08,1.08,1.08,0,0,1,.39.24.92.92,0,0,1,.19.28,1,1,0,0,1,.06.34h0a.85.85,0,0,1-.26.64,1.28,1.28,0,0,1-.7.3l1.09,1.41h-.32l-1.05-1.37H24.64v1.37H24.4v-3.3Zm.67,1.51a.67.67,0,0,0,.27-.56h0a.65.65,0,0,0-.25-.53,1.12,1.12,0,0,0-.7-.2H24.64v1.49h1.11A1.16,1.16,0,0,0,26.45,21.69Z"/><path class="cls-1" d="M29.36,20.4v-.22h2.55v.22H30.76v3.08h-.24V20.4Z"/><path class="cls-1" d="M34.78,20.18v3.3h-.25v-3.3Z"/><path class="cls-1" d="M38,23.4a2.25,2.25,0,0,1-.62-.4l.16-.19a1.82,1.82,0,0,0,.55.38,1.54,1.54,0,0,0,.63.12,1,1,0,0,0,.44-.09.74.74,0,0,0,.29-.23.58.58,0,0,0,.11-.34h0a.59.59,0,0,0-.08-.31.64.64,0,0,0-.28-.22,2.4,2.4,0,0,0-.58-.17,1.89,1.89,0,0,1-.85-.34.73.73,0,0,1-.26-.59h0a.77.77,0,0,1,.14-.44.92.92,0,0,1,.38-.32,1.33,1.33,0,0,1,.54-.11,1.7,1.7,0,0,1,1.13.4l-.15.19a1.54,1.54,0,0,0-.47-.28,1.46,1.46,0,0,0-.52-.09,1.16,1.16,0,0,0-.42.08.65.65,0,0,0-.28.23.52.52,0,0,0-.1.31h0a.55.55,0,0,0,.08.32.72.72,0,0,0,.29.23,3.56,3.56,0,0,0,.59.18,1.85,1.85,0,0,1,.83.33.7.7,0,0,1,.25.58h0a.79.79,0,0,1-.14.47.9.9,0,0,1-.38.31,1.32,1.32,0,0,1-.57.12A2,2,0,0,1,38,23.4Z"/><path class="cls-1" d="M42.7,20.18v3.3h-.25v-3.3Z"/><path class="cls-1" d="M45.79,20.18l2.27,2.87V20.18h.24v3.3h-.18l-2.33-2.93v2.93h-.24v-3.3Z"/><path class="cls-1" d="M51.57,23.31a1.44,1.44,0,0,1-.58-.62,1.72,1.72,0,0,1-.2-.85h0A1.86,1.86,0,0,1,51,21a1.6,1.6,0,0,1,1.43-.87,1.82,1.82,0,0,1,.66.11,2.07,2.07,0,0,1,.55.32l-.16.19a1.66,1.66,0,0,0-.47-.29,1.48,1.48,0,0,0-.59-.11,1.31,1.31,0,0,0-.71.2,1.47,1.47,0,0,0-.48.54,1.56,1.56,0,0,0-.18.74h0a1.77,1.77,0,0,0,.17.77,1.34,1.34,0,0,0,.5.53,1.39,1.39,0,0,0,.75.19,1.7,1.7,0,0,0,1-.38V22h-1.1v-.22h1.34V23a2,2,0,0,1-.59.36,1.87,1.87,0,0,1-.71.14A1.67,1.67,0,0,1,51.57,23.31Z"/></g></g></svg>