<svg xmlns="http://www.w3.org/2000/svg" viewBox="0 0 58.87 19"><defs><style>.cls-1{fill:#4d4d4d;}</style></defs><title>Asset 5-brand</title><g id="Layer_2" data-name="Layer 2"><g id="Layer_1-2" data-name="Layer 1"><path class="cls-1" d="M4.51.36A3.81,3.81,0,0,1,5.78.55a2.4,2.4,0,0,1,.92.55,2,2,0,0,1,.57,1.43v0a2,2,0,0,1-1.1,1.81,2.83,2.83,0,0,1,1.18.78,2,2,0,0,1,.39,1.28v0A2,2,0,0,1,6.9,8.16a4,4,0,0,1-2.3.59h-4V.36ZM5.13,2.2A1.54,1.54,0,0,0,4.23,2H2.41V3.75h1.7a1.9,1.9,0,0,0,1-.21.73.73,0,0,0,.35-.68v0A.73.73,0,0,0,5.13,2.2Zm.44,3.32a1.85,1.85,0,0,0-1-.23H2.41V7.13H4.6a1.76,1.76,0,0,0,1-.23.78.78,0,0,0,.34-.68v0A.78.78,0,0,0,5.57,5.52Z"/><path class="cls-1" d="M10.89,2.32v1.3a2.67,2.67,0,0,1,.79-1.08,1.84,1.84,0,0,1,1.26-.33v1.9h-.09a1.84,1.84,0,0,0-1.45.57,2.47,2.47,0,0,0-.51,1.7V8.75H9.07V2.32Z"/><path class="cls-1" d="M14,8.35A1.78,1.78,0,0,1,13.4,6.9v0a1.76,1.76,0,0,1,.7-1.53A3.09,3.09,0,0,1,16,4.83a5,5,0,0,1,1.57.26V5a1.1,1.1,0,0,0-.35-.88,1.54,1.54,0,0,0-1-.3,4.74,4.74,0,0,0-.89.08,6.6,6.6,0,0,0-.88.27L14,2.77a5.46,5.46,0,0,1,1.16-.39,5.82,5.82,0,0,1,1.33-.13A2.94,2.94,0,0,1,18.61,3a2.77,2.77,0,0,1,.7,2V8.75H17.55v-.7a2.48,2.48,0,0,1-2,.82A2.41,2.41,0,0,1,14,8.35Zm3.16-1.06a1,1,0,0,0,.39-.81V6.16a2.7,2.7,0,0,0-1.16-.24,1.62,1.62,0,0,0-.92.23.73.73,0,0,0-.34.66v0a.67.67,0,0,0,.28.57,1.14,1.14,0,0,0,.72.21A1.62,1.62,0,0,0,17.19,7.29Z"/><path class="cls-1" d="M22.7,2.32v.92a3.19,3.19,0,0,1,.81-.76,2,2,0,0,1,1.07-.27,2.08,2.08,0,0,1,1.61.63,2.53,2.53,0,0,1,.57,1.75V8.75H24.94V5.17a1.49,1.49,0,0,0-.29-1,1,1,0,0,0-.81-.33,1.11,1.11,0,0,0-.84.33,1.44,1.44,0,0,0-.3,1V8.75H20.88V2.32Z"/><path class="cls-1" d="M29.54,8.48a2.8,2.8,0,0,1-1.08-1.15,3.68,3.68,0,0,1-.4-1.78v0a3.71,3.71,0,0,1,.4-1.78,2.77,2.77,0,0,1,1.07-1.15A2.93,2.93,0,0,1,31,2.21a2.41,2.41,0,0,1,1.15.25,3,3,0,0,1,.85.7V0H34.8V8.75H33V7.83a2.38,2.38,0,0,1-2,1A2.83,2.83,0,0,1,29.54,8.48ZM32.23,7.1a1.58,1.58,0,0,0,.57-.63A2,2,0,0,0,33,5.55v0a2,2,0,0,0-.21-.92A1.58,1.58,0,0,0,32.23,4a1.48,1.48,0,0,0-.78-.22,1.54,1.54,0,0,0-.79.22,1.58,1.58,0,0,0-.57.63,1.92,1.92,0,0,0-.21.92v0a2,2,0,0,0,.21.92,1.58,1.58,0,0,0,.57.63,1.45,1.45,0,0,0,.79.22A1.39,1.39,0,0,0,32.23,7.1Z"/><path class="cls-1" d="M38.39,0V1.62H36.47V0Zm0,2.32V8.75H36.52V2.32Z"/><path class="cls-1" d="M41.87,2.32v.92a3.19,3.19,0,0,1,.81-.76,2,2,0,0,1,1.08-.27,2.06,2.06,0,0,1,1.6.63,2.53,2.53,0,0,1,.58,1.75V8.75H44.11V5.17a1.49,1.49,0,0,0-.28-1A1,1,0,0,0,43,3.86a1.07,1.07,0,0,0-.83.33,1.44,1.44,0,0,0-.31,1V8.75H40.05V2.32Z"/><path class="cls-1" d="M47.55,10l.63-1.37a5.07,5.07,0,0,0,1,.44,4.14,4.14,0,0,0,1.14.15c1.22,0,1.83-.58,1.83-1.75V7.18a3,3,0,0,1-.92.78,2.37,2.37,0,0,1-1.18.26,2.91,2.91,0,0,1-1.42-.36,2.71,2.71,0,0,1-1-1,3.19,3.19,0,0,1-.39-1.6v0a3.07,3.07,0,0,1,.4-1.6,2.73,2.73,0,0,1,1-1,2.89,2.89,0,0,1,1.41-.35,2.48,2.48,0,0,1,1.18.25,3.23,3.23,0,0,1,.9.7V2.32H54v5a3.44,3.44,0,0,1-.82,2.53,3.81,3.81,0,0,1-2.77.86A6,6,0,0,1,47.55,10Zm4.18-3.73a1.38,1.38,0,0,0,.45-1.06v0a1.4,1.4,0,0,0-.45-1.07,1.61,1.61,0,0,0-1.12-.41,1.57,1.57,0,0,0-1.11.41,1.4,1.4,0,0,0-.45,1.07v0A1.4,1.4,0,0,0,49.5,6.3a1.71,1.71,0,0,0,2.23,0Z"/><path class="cls-1" d="M1.67,18.64a5.3,5.3,0,0,1-1.67-1l1.09-1.3a4.8,4.8,0,0,0,1.21.75,3.19,3.19,0,0,0,1.3.27,1.59,1.59,0,0,0,.88-.21.66.66,0,0,0,.33-.58v0a.64.64,0,0,0-.14-.42,1.18,1.18,0,0,0-.49-.31,9.31,9.31,0,0,0-1.06-.33,9.3,9.3,0,0,1-1.54-.53,2.12,2.12,0,0,1-.91-.75A2.24,2.24,0,0,1,.34,12.9v0a2.35,2.35,0,0,1,.37-1.33,2.46,2.46,0,0,1,1.05-.88,3.32,3.32,0,0,1,1.51-.32,4.85,4.85,0,0,1,3.12,1.06l-1,1.4A3.85,3.85,0,0,0,3.25,12a1.39,1.39,0,0,0-.8.2.62.62,0,0,0-.28.53v0a.64.64,0,0,0,.15.45,1.29,1.29,0,0,0,.52.32A10.09,10.09,0,0,0,4,13.84a5.1,5.1,0,0,1,2,.91,2,2,0,0,1,.65,1.6v0a2.32,2.32,0,0,1-.85,1.91A3.4,3.4,0,0,1,3.56,19,5.54,5.54,0,0,1,1.67,18.64Z"/><path class="cls-1" d="M8.78,18.53A2,2,0,0,1,8.29,17V14H7.53V12.43h.76V10.79h1.83v1.64h1.51V14H10.12v2.75a.63.63,0,0,0,.14.46.55.55,0,0,0,.44.16,1.88,1.88,0,0,0,.9-.23v1.46a2.71,2.71,0,0,1-1.44.38A2,2,0,0,1,8.78,18.53Z"/><path class="cls-1" d="M13.5,18.34a2.47,2.47,0,0,1-.58-1.75V12.43h1.82V16A1.48,1.48,0,0,0,15,17a1,1,0,0,0,.81.33,1.09,1.09,0,0,0,.84-.33,1.43,1.43,0,0,0,.3-1V12.43H18.8v6.43H17V18a3.15,3.15,0,0,1-.81.75A1.92,1.92,0,0,1,15.1,19,2,2,0,0,1,13.5,18.34Z"/><path class="cls-1" d="M21.33,18.59a2.93,2.93,0,0,1-1.08-1.15,3.71,3.71,0,0,1-.4-1.78v0a3.71,3.71,0,0,1,.4-1.78,2.78,2.78,0,0,1,1.07-1.15,2.84,2.84,0,0,1,1.45-.39,2.41,2.41,0,0,1,1.15.26,3,3,0,0,1,.85.7V10.11h1.82v8.75H24.77v-.93a2.37,2.37,0,0,1-2,1.05A2.83,2.83,0,0,1,21.33,18.59ZM24,17.21a1.58,1.58,0,0,0,.57-.63,2,2,0,0,0,.21-.92v0a2,2,0,0,0-.21-.92,1.58,1.58,0,0,0-.57-.63,1.39,1.39,0,0,0-.78-.22,1.45,1.45,0,0,0-.79.22,1.62,1.62,0,0,0-.57.62,2,2,0,0,0-.21.93v0a2,2,0,0,0,.21.92,1.58,1.58,0,0,0,.57.63,1.45,1.45,0,0,0,.79.22A1.39,1.39,0,0,0,24,17.21Z"/><path class="cls-1" d="M30.18,10.11v1.62H28.26V10.11Zm-.05,2.32v6.43H28.31V12.43Z"/><path class="cls-1" d="M32.93,18.56a3.3,3.3,0,0,1-1.25-1.21,3.19,3.19,0,0,1-.45-1.67v0A3.17,3.17,0,0,1,31.69,14a3.33,3.33,0,0,1,1.25-1.22,3.73,3.73,0,0,1,3.55,0A3.18,3.18,0,0,1,37.73,14a3.24,3.24,0,0,1,.45,1.67v0a3.31,3.31,0,0,1-.45,1.68,3.38,3.38,0,0,1-1.25,1.21,3.76,3.76,0,0,1-3.55,0Zm3-1.63a1.82,1.82,0,0,0,.46-1.25v0a1.85,1.85,0,0,0-.22-.88,1.66,1.66,0,0,0-1.47-.9,1.53,1.53,0,0,0-1.21.51A1.75,1.75,0,0,0,33,15.63v0a1.83,1.83,0,0,0,.81,1.53,1.64,1.64,0,0,0,.88.24A1.57,1.57,0,0,0,35.93,16.93Z"/><path class="cls-1" d="M55.24.81V.68h1.45V.81H56V2.55H55.9V.81Z"/><path class="cls-1" d="M57.24.68,58,1.79,58.74.68h.13V2.55h-.14V.93L58,2h0L57.24.93V2.55h-.13V.68Z"/></g></g></svg>