<svg xmlns="http://www.w3.org/2000/svg" xmlns:xlink="http://www.w3.org/1999/xlink" viewBox="0 0 576.44 304.64"><defs><style>.cls-1{fill:url(#linear-gradient);}</style><linearGradient id="linear-gradient" x1="63.37" y1="2135.68" x2="64.37" y2="2135.68" gradientTransform="matrix(577.44, 0, 0, -577.44, -36590.51, 1233379.23)" gradientUnits="userSpaceOnUse"><stop offset="0" stop-color="#19bee9"/><stop offset="0.31" stop-color="#a97dec"/><stop offset="0.67" stop-color="#db62ab"/><stop offset="1" stop-color="#f4505f"/></linearGradient></defs><title>Asset 11</title><g id="Layer_2" data-name="Layer 2"><g id="Layer_1-2" data-name="Layer 1"><path class="cls-1" d="M105.4,16.51,11.65,294a1,1,0,0,1-1.94-.28L0,11.85a1,1,0,0,1,.73-1,1,1,0,0,1,1.15.48L162,302,463.11.29a1,1,0,0,1,1.68.91L401.7,303.32a1,1,0,0,1-1.26.76L268.26,264.94a1,1,0,0,1-.71-.81,1,1,0,0,1,.44-1L574.89,60.83A1,1,0,1,1,576,62.5L270.88,263.63,400,301.85,462.15,4.08,162.51,304.34a1,1,0,0,1-.84.29,1,1,0,0,1-.74-.51L2.14,16,11.52,288.2l92-272.33a1,1,0,0,1,1.9.64Z"/></g></g></svg>