<svg xmlns="http://www.w3.org/2000/svg" viewBox="0 0 18.2 18.2"><defs><style>.cls-1,.cls-2{fill:#d8505f;}.cls-2{opacity:0.4;}</style></defs><title>Asset 1popup-lables</title><g id="Layer_2" data-name="Layer 2"><g id="Layer_1-2" data-name="Layer 1"><path class="cls-1" d="M13.36,14.78H4.83a10.15,10.15,0,0,1-1.49-.08C.55,14.39,0,12.73,0,10V8.24C0,5.47.55,3.8,3.35,3.49a11.49,11.49,0,0,1,1.48-.08h8.53a11.84,11.84,0,0,1,1.5.08c2.79.31,3.34,2,3.34,4.75V10c0,2.78-.55,4.44-3.36,4.75A9.75,9.75,0,0,1,13.36,14.78ZM4.83,4.55a9.3,9.3,0,0,0-1.33.07c-1.75.19-2.36.77-2.36,3.62V10c0,2.86.61,3.43,2.34,3.63a9.8,9.8,0,0,0,1.35.07h8.53a9.45,9.45,0,0,0,1.34-.07c1.75-.2,2.36-.77,2.36-3.63V8.24c0-2.85-.61-3.43-2.34-3.62a10,10,0,0,0-1.36-.07Z"/><path class="cls-2" d="M11.94,18.2H6.26c-2.59,0-3.42-.83-3.42-3.41V14.5c0-.15,0-.27,0-.4a.57.57,0,0,1,.21-.4.54.54,0,0,1,.44-.12,9.3,9.3,0,0,0,1.33.07h8.53a9.45,9.45,0,0,0,1.34-.07.55.55,0,0,1,.43.12.53.53,0,0,1,.21.4,2.55,2.55,0,0,1,0,.4v.29C15.36,17.37,14.53,18.2,11.94,18.2ZM4,14.76v0c0,1.95.32,2.27,2.28,2.27h5.68c2,0,2.28-.32,2.28-2.27v0c-.25,0-.53,0-.86,0H4.83C4.51,14.78,4.23,14.78,4,14.76Z"/><path class="cls-2" d="M14.78,4.62H14.7a9.45,9.45,0,0,0-1.34-.07H4.83a9.3,9.3,0,0,0-1.33.07.57.57,0,0,1-.44-.12.57.57,0,0,1-.21-.4c0-.13,0-.26,0-.4V3.41C2.84.83,3.67,0,6.26,0h5.68c2.59,0,3.42.83,3.42,3.41V3.7a2.61,2.61,0,0,1,0,.4.53.53,0,0,1-.21.4A.55.55,0,0,1,14.78,4.62ZM6.26,1.14C4.3,1.14,4,1.45,4,3.41v0l.85,0h8.53l.86,0v0c0-2-.32-2.27-2.28-2.27Z"/></g></g></svg>