<svg xmlns="http://www.w3.org/2000/svg" viewBox="0 0 19.14 14.19"><defs><style>.cls-1,.cls-2{fill:#d8505f;}.cls-2{opacity:0.4;}</style></defs><title>Asset 2popup-lables</title><g id="Layer_2" data-name="Layer 2"><g id="Layer_1-2" data-name="Layer 1"><path class="cls-1" d="M2.15,5.13A2.16,2.16,0,1,1,4.3,3,2.16,2.16,0,0,1,2.15,5.13Zm0-3.3A1.15,1.15,0,1,0,3.3,3,1.15,1.15,0,0,0,2.15,1.83Z"/><path class="cls-1" d="M17,5.13A2.16,2.16,0,1,1,19.14,3,2.16,2.16,0,0,1,17,5.13Zm0-3.3A1.15,1.15,0,1,0,18.13,3,1.15,1.15,0,0,0,17,1.83Z"/><path class="cls-1" d="M15.34,3.48H12a.51.51,0,0,1,0-1h3.3a.51.51,0,0,1,0,1Z"/><path class="cls-1" d="M7.1,3.48H3.8a.51.51,0,0,1,0-1H7.1a.51.51,0,0,1,0,1Z"/><path class="cls-1" d="M4.62,14.19H3a1.75,1.75,0,0,1-1.75-1.74V10.8A1.76,1.76,0,0,1,3,9.06H4.62A1.75,1.75,0,0,1,6.36,10.8v1.65a1.72,1.72,0,0,1-1,1.59A1.63,1.63,0,0,1,4.62,14.19ZM3,10.07a.74.74,0,0,0-.74.73v1.65a.73.73,0,0,0,.74.73H4.62a.75.75,0,0,0,.29-.06.72.72,0,0,0,.45-.67V10.8a.74.74,0,0,0-.74-.73Z"/><path class="cls-1" d="M16.16,14.19H14.51a1.68,1.68,0,0,1-.72-.16,1.71,1.71,0,0,1-1-1.58V10.8a1.75,1.75,0,0,1,1.74-1.74h1.65A1.75,1.75,0,0,1,17.9,10.8v1.65A1.74,1.74,0,0,1,16.16,14.19Zm-1.65-4.12a.73.73,0,0,0-.73.73v1.65a.71.71,0,0,0,.43.66.69.69,0,0,0,.3.07h1.65a.73.73,0,0,0,.73-.73V10.8a.73.73,0,0,0-.73-.73Z"/><path class="cls-1" d="M10.8,6H8.33A1.74,1.74,0,0,1,6.59,4.21V1.74A1.74,1.74,0,0,1,8.33,0H10.8a1.75,1.75,0,0,1,1.75,1.74V4.21A1.75,1.75,0,0,1,10.8,6ZM8.33,1a.73.73,0,0,0-.73.73V4.21a.73.73,0,0,0,.73.73H10.8a.74.74,0,0,0,.74-.73V1.74A.74.74,0,0,0,10.8,1Z"/><path class="cls-2" d="M15.31,10.07h-.06a.51.51,0,0,1-.44-.56,2.06,2.06,0,0,0,0-.35,5.72,5.72,0,0,0-3-5.13.51.51,0,0,1-.22-.68.5.5,0,0,1,.68-.22,6.75,6.75,0,0,1,3.57,6,3.71,3.71,0,0,1,0,.47A.5.5,0,0,1,15.31,10.07Z"/><path class="cls-2" d="M3.82,10.07a.51.51,0,0,1-.5-.44c0-.16,0-.31,0-.47a6.75,6.75,0,0,1,3.57-6,.5.5,0,0,1,.68.22A.51.51,0,0,1,7.32,4a5.74,5.74,0,0,0-3,5.13c0,.12,0,.23,0,.35a.49.49,0,0,1-.44.56Z"/></g></g></svg>