<svg xmlns="http://www.w3.org/2000/svg" viewBox="0 0 18.67 18.67"><defs><style>.cls-1{fill:#d8505f;}.cls-2{opacity:0.4;}</style></defs><title>Asset 3popup-lables</title><g id="Layer_2" data-name="Layer 2"><g id="Layer_1-2" data-name="Layer 1"><path class="cls-1" d="M9.33,18.67a9.34,9.34,0,1,1,9.34-9.34A9.35,9.35,0,0,1,9.33,18.67Zm0-17.56a8.22,8.22,0,1,0,8.22,8.22A8.22,8.22,0,0,0,9.33,1.11Z"/><g class="cls-2"><path class="cls-1" d="M7.33,14.35a.94.94,0,0,1-.51-.15c-.21-.15-.54-.52-.33-1.36L7.19,10l-.9-.22a1.14,1.14,0,0,1-1-.85,1.15,1.15,0,0,1,.6-1.15l4.54-3.15c.71-.49,1.17-.32,1.39-.17s.53.51.33,1.35l-.7,2.83.9.23a1.11,1.11,0,0,1,1,.85,1.13,1.13,0,0,1-.59,1.14L8.21,14A1.61,1.61,0,0,1,7.33,14.35ZM6.55,8.71,8,9.07a.55.55,0,0,1,.41.67l-.84,3.37L12.11,10,10.67,9.6a.55.55,0,0,1-.34-.25.53.53,0,0,1-.07-.42l.83-3.37Z"/></g></g></g></svg>