<svg xmlns="http://www.w3.org/2000/svg" viewBox="0 0 21.87 21.87"><defs><style>.cls-1,.cls-3,.cls-4{fill:none;stroke:#d8505f;}.cls-1,.cls-3{stroke-linecap:round;stroke-linejoin:round;stroke-width:1.28px;}.cls-2,.cls-3{opacity:0.4;}.cls-4{stroke-miterlimit:10;stroke-width:1.39px;opacity:0;}</style></defs><title>Asset 4popup-lables</title><g id="Layer_2" data-name="Layer 2"><g id="Layer_1-2" data-name="Layer 1"><path class="cls-1" d="M2.4,8.38V6.67A4,4,0,0,1,6.67,2.4H15.2a4,4,0,0,1,4.27,4.27V8.38"/><path class="cls-1" d="M2.4,13.5v1.7a4,4,0,0,0,4.27,4.27H15.2a4,4,0,0,0,4.27-4.27V13.5"/><g class="cls-2"><polyline class="cls-1" points="6.42 8.6 10.94 11.22 15.43 8.62"/><line class="cls-1" x1="10.94" y1="15.86" x2="10.94" y2="11.21"/></g><path class="cls-3" d="M9.87,6.06,7.14,7.58A2.4,2.4,0,0,0,6,9.49v2.89A2.43,2.43,0,0,0,7.14,14.3l2.73,1.51a2.42,2.42,0,0,0,2.13,0l2.73-1.51a2.44,2.44,0,0,0,1.13-1.92V9.49a2.41,2.41,0,0,0-1.13-1.91L12,6.06A2.42,2.42,0,0,0,9.87,6.06Z"/><rect class="cls-4" x="0.69" y="0.69" width="20.49" height="20.49"/></g></g></svg>